<svg xmlns="http://www.w3.org/2000/svg" xmlns:xlink="http://www.w3.org/1999/xlink" width="500" zoomAndPan="magnify" viewBox="0 0 375 374.999991" height="500" preserveAspectRatio="xMidYMid meet" version="1.0"><defs><g/><clipPath id="65ec5fa35f"><path d="M 152 158.46875 L 336.542969 158.46875 L 336.542969 216.523438 L 152 216.523438 Z M 152 158.46875 " clip-rule="nonzero"/></clipPath><clipPath id="25ad91dada"><path d="M 192.519531 158.46875 L 330.15625 158.46875 C 332.304688 158.46875 334.289062 159.621094 335.355469 161.488281 C 336.417969 163.359375 336.398438 165.652344 335.304688 167.503906 L 311.625 207.488281 C 308.308594 213.089844 302.285156 216.523438 295.777344 216.523438 L 158.140625 216.523438 C 155.992188 216.523438 154.007812 215.371094 152.941406 213.503906 C 151.875 211.632812 151.894531 209.339844 152.992188 207.488281 L 176.667969 167.503906 C 179.984375 161.902344 186.011719 158.46875 192.519531 158.46875 Z M 192.519531 158.46875 " clip-rule="nonzero"/></clipPath></defs><rect x="-37.5" width="450" fill="#ffffff" y="-37.499999" height="449.999989" fill-opacity="1"/><rect x="-37.5" width="450" fill="#ffffff" y="-37.499999" height="449.999989" fill-opacity="1"/><g clip-path="url(#65ec5fa35f)"><g clip-path="url(#25ad91dada)"><path fill="#000000" d="M 147.640625 158.46875 L 340.625 158.46875 L 340.625 216.523438 L 147.640625 216.523438 Z M 147.640625 158.46875 " fill-opacity="1" fill-rule="nonzero"/></g></g><g fill="#000000" fill-opacity="1"><g transform="translate(34.345487, 206.752196)"><g><path d="M 3.421875 -34.21875 L 18.140625 -34.21875 C 23.515625 -34.21875 27.890625 -32.632812 31.265625 -29.46875 C 34.640625 -26.3125 36.328125 -22.191406 36.328125 -17.109375 C 36.328125 -12.054688 34.613281 -7.941406 31.1875 -4.765625 C 27.769531 -1.585938 23.304688 0 17.796875 0 L 3.421875 0 Z M 12.125 -27.28125 L 12.125 -6.9375 L 18.328125 -6.9375 C 21.003906 -6.9375 23.195312 -7.875 24.90625 -9.75 C 26.613281 -11.625 27.46875 -14.0625 27.46875 -17.0625 C 27.46875 -20.0625 26.570312 -22.515625 24.78125 -24.421875 C 22.988281 -26.328125 20.707031 -27.28125 17.9375 -27.28125 Z M 12.125 -27.28125 "/></g></g></g><g fill="#000000" fill-opacity="1"><g transform="translate(69.05687, 206.752196)"><g><path d="M 14.90625 -26.640625 C 19.46875 -26.640625 22.898438 -25.238281 25.203125 -22.4375 C 27.503906 -19.632812 28.503906 -15.789062 28.203125 -10.90625 L 9.6875 -10.90625 C 10.101562 -9.34375 10.847656 -8.132812 11.921875 -7.28125 C 13.003906 -6.4375 14.328125 -6.015625 15.890625 -6.015625 C 18.296875 -6.015625 20.398438 -6.910156 22.203125 -8.703125 L 26.640625 -4.34375 C 23.804688 -1.25 19.976562 0.296875 15.15625 0.296875 C 10.882812 0.296875 7.484375 -0.925781 4.953125 -3.375 C 2.429688 -5.820312 1.171875 -9.066406 1.171875 -13.109375 C 1.171875 -17.179688 2.429688 -20.453125 4.953125 -22.921875 C 7.484375 -25.398438 10.800781 -26.640625 14.90625 -26.640625 Z M 9.53125 -15.453125 L 20.09375 -15.453125 C 20.09375 -17.046875 19.628906 -18.332031 18.703125 -19.3125 C 17.773438 -20.289062 16.546875 -20.78125 15.015625 -20.78125 C 13.578125 -20.78125 12.367188 -20.296875 11.390625 -19.328125 C 10.410156 -18.367188 9.789062 -17.078125 9.53125 -15.453125 Z M 9.53125 -15.453125 "/></g></g></g><g fill="#000000" fill-opacity="1"><g transform="translate(95.701467, 206.752196)"><g><path d="M 18.328125 0 L 9.6875 0 L -0.25 -26.359375 L 8.453125 -26.359375 L 14.125 -7.71875 L 19.84375 -26.359375 L 28.265625 -26.359375 Z M 18.328125 0 "/></g></g></g><g fill="#000000" fill-opacity="1"><g transform="translate(120.830469, 206.752196)"><g><path d="M 12.8125 -26.75 C 16.6875 -26.75 20.300781 -25.753906 23.65625 -23.765625 L 20.78125 -18.28125 C 17.519531 -20.039062 14.75 -20.921875 12.46875 -20.921875 C 10.738281 -20.921875 9.875 -20.316406 9.875 -19.109375 C 9.875 -18.460938 10.347656 -17.914062 11.296875 -17.46875 C 12.242188 -17.03125 13.398438 -16.632812 14.765625 -16.28125 C 16.128906 -15.925781 17.488281 -15.476562 18.84375 -14.9375 C 20.195312 -14.394531 21.347656 -13.535156 22.296875 -12.359375 C 23.242188 -11.191406 23.71875 -9.757812 23.71875 -8.0625 C 23.71875 -5.425781 22.6875 -3.363281 20.625 -1.875 C 18.570312 -0.394531 15.898438 0.34375 12.609375 0.34375 C 7.953125 0.34375 4.007812 -0.894531 0.78125 -3.375 L 3.46875 -8.75 C 6.5625 -6.5625 9.675781 -5.46875 12.8125 -5.46875 C 14.726562 -5.46875 15.6875 -6.070312 15.6875 -7.28125 C 15.6875 -7.96875 15.222656 -8.539062 14.296875 -9 C 13.367188 -9.457031 12.234375 -9.863281 10.890625 -10.21875 C 9.554688 -10.570312 8.222656 -11.019531 6.890625 -11.5625 C 5.554688 -12.101562 4.425781 -12.941406 3.5 -14.078125 C 2.570312 -15.222656 2.109375 -16.660156 2.109375 -18.390625 C 2.109375 -21.023438 3.097656 -23.078125 5.078125 -24.546875 C 7.066406 -26.015625 9.644531 -26.75 12.8125 -26.75 Z M 12.8125 -26.75 "/></g></g></g><g fill="#ffffff" fill-opacity="1"><g transform="translate(161.381831, 206.752196)"><g><path d="M 20.921875 -26.75 C 23.828125 -26.75 26.160156 -25.828125 27.921875 -23.984375 C 29.679688 -22.140625 30.5625 -19.6875 30.5625 -16.625 L 30.5625 0 L 22.09375 0 L 22.09375 -14.28125 C 22.09375 -15.8125 21.675781 -17.023438 20.84375 -17.921875 C 20.019531 -18.816406 18.890625 -19.265625 17.453125 -19.265625 C 15.828125 -19.265625 14.523438 -18.675781 13.546875 -17.5 C 12.566406 -16.332031 12.078125 -14.832031 12.078125 -13 L 12.078125 0 L 3.625 0 L 3.625 -36.28125 L 12.078125 -36.28125 L 12.078125 -22 C 13.929688 -25.09375 16.878906 -26.675781 20.921875 -26.75 Z M 20.921875 -26.75 "/></g></g></g><g fill="#ffffff" fill-opacity="1"><g transform="translate(191.742029, 206.752196)"><g><path d="M 15.59375 -26.640625 C 19.894531 -26.640625 23.363281 -25.410156 26 -22.953125 C 28.644531 -20.492188 29.96875 -17.242188 29.96875 -13.203125 C 29.96875 -9.160156 28.644531 -5.898438 26 -3.421875 C 23.363281 -0.941406 19.894531 0.296875 15.59375 0.296875 C 11.257812 0.296875 7.769531 -0.941406 5.125 -3.421875 C 2.488281 -5.898438 1.171875 -9.160156 1.171875 -13.203125 C 1.171875 -17.242188 2.488281 -20.492188 5.125 -22.953125 C 7.769531 -25.410156 11.257812 -26.640625 15.59375 -26.640625 Z M 15.59375 -19.953125 C 13.832031 -19.953125 12.40625 -19.316406 11.3125 -18.046875 C 10.226562 -16.773438 9.6875 -15.128906 9.6875 -13.109375 C 9.6875 -11.046875 10.226562 -9.390625 11.3125 -8.140625 C 12.40625 -6.890625 13.832031 -6.265625 15.59375 -6.265625 C 17.320312 -6.265625 18.734375 -6.890625 19.828125 -8.140625 C 20.921875 -9.390625 21.46875 -11.046875 21.46875 -13.109375 C 21.46875 -15.128906 20.921875 -16.773438 19.828125 -18.046875 C 18.734375 -19.316406 17.320312 -19.953125 15.59375 -19.953125 Z M 15.59375 -19.953125 "/></g></g></g><g fill="#ffffff" fill-opacity="1"><g transform="translate(220.097754, 206.752196)"><g><path d="M 12.078125 0 L 3.625 0 L 3.625 -36.28125 L 12.078125 -36.28125 Z M 12.078125 0 "/></g></g></g><g fill="#ffffff" fill-opacity="1"><g transform="translate(233.004348, 206.752196)"><g><path d="M 14.90625 -26.640625 C 19.46875 -26.640625 22.898438 -25.238281 25.203125 -22.4375 C 27.503906 -19.632812 28.503906 -15.789062 28.203125 -10.90625 L 9.6875 -10.90625 C 10.101562 -9.34375 10.847656 -8.132812 11.921875 -7.28125 C 13.003906 -6.4375 14.328125 -6.015625 15.890625 -6.015625 C 18.296875 -6.015625 20.398438 -6.910156 22.203125 -8.703125 L 26.640625 -4.34375 C 23.804688 -1.25 19.976562 0.296875 15.15625 0.296875 C 10.882812 0.296875 7.484375 -0.925781 4.953125 -3.375 C 2.429688 -5.820312 1.171875 -9.066406 1.171875 -13.109375 C 1.171875 -17.179688 2.429688 -20.453125 4.953125 -22.921875 C 7.484375 -25.398438 10.800781 -26.640625 14.90625 -26.640625 Z M 9.53125 -15.453125 L 20.09375 -15.453125 C 20.09375 -17.046875 19.628906 -18.332031 18.703125 -19.3125 C 17.773438 -20.289062 16.546875 -20.78125 15.015625 -20.78125 C 13.578125 -20.78125 12.367188 -20.296875 11.390625 -19.328125 C 10.410156 -18.367188 9.789062 -17.078125 9.53125 -15.453125 Z M 9.53125 -15.453125 "/></g></g></g></svg>