<svg xmlns="http://www.w3.org/2000/svg" xmlns:xlink="http://www.w3.org/1999/xlink" width="500" zoomAndPan="magnify" viewBox="0 0 375 374.999991" height="500" preserveAspectRatio="xMidYMid meet" version="1.0"><defs><g/><clipPath id="0a4603cd88"><path d="M 25.003906 118.75 L 350 118.75 L 350 256.269531 L 25.003906 256.269531 Z M 25.003906 118.75 " clip-rule="nonzero"/></clipPath><clipPath id="567df25e44"><path d="M 113.179688 118.75 L 343.257812 118.75 C 345.40625 118.75 347.390625 119.902344 348.457031 121.769531 C 349.519531 123.636719 349.503906 125.933594 348.40625 127.785156 L 277.667969 247.234375 C 274.351562 252.835938 268.328125 256.269531 261.820312 256.269531 L 31.742188 256.269531 C 29.59375 256.269531 27.609375 255.117188 26.542969 253.25 C 25.480469 251.378906 25.496094 249.085938 26.59375 247.234375 L 97.332031 127.785156 C 100.648438 122.183594 106.671875 118.75 113.179688 118.75 Z M 113.179688 118.75 " clip-rule="nonzero"/></clipPath></defs><rect x="-37.5" width="450" fill="#ffffff" y="-37.499999" height="449.999989" fill-opacity="1"/><rect x="-37.5" width="450" fill="#ffffff" y="-37.499999" height="449.999989" fill-opacity="1"/><g clip-path="url(#0a4603cd88)"><g clip-path="url(#567df25e44)"><path fill="#000000" d="M 21.242188 118.75 L 353.765625 118.75 L 353.765625 256.269531 L 21.242188 256.269531 Z M 21.242188 118.75 " fill-opacity="1" fill-rule="nonzero"/></g></g><g fill="#ffffff" fill-opacity="1"><g transform="translate(100.371113, 233.105206)"><g><path d="M 8.109375 -81.0625 L 42.96875 -81.0625 C 55.707031 -81.0625 66.070312 -77.316406 74.0625 -69.828125 C 82.050781 -62.335938 86.046875 -52.570312 86.046875 -40.53125 C 86.046875 -28.5625 81.992188 -18.8125 73.890625 -11.28125 C 65.785156 -3.757812 55.207031 0 42.15625 0 L 8.109375 0 Z M 28.71875 -64.625 L 28.71875 -16.453125 L 43.4375 -16.453125 C 49.757812 -16.453125 54.945312 -18.671875 59 -23.109375 C 63.0625 -27.546875 65.09375 -33.316406 65.09375 -40.421875 C 65.09375 -47.523438 62.96875 -53.332031 58.71875 -57.84375 C 54.46875 -62.363281 49.0625 -64.625 42.5 -64.625 Z M 28.71875 -64.625 "/></g></g></g><g fill="#ffffff" fill-opacity="1"><g transform="translate(182.596514, 233.105206)"><g><path d="M 82.921875 0 L 62.3125 0 L 62.3125 -31.5 L 28.71875 -31.5 L 28.71875 0 L 8.109375 0 L 8.109375 -81.0625 L 28.71875 -81.0625 L 28.71875 -47.71875 L 62.3125 -47.71875 L 62.3125 -81.0625 L 82.921875 -81.0625 Z M 82.921875 0 "/></g></g></g></svg>